# xmcd
#
# Track frame offsets:
#	150
#	21755
#	48209
#	71132
#	102207
#	136543
#	163630
#	179361
#	203260
#	219120
#
# Disc length: 3331 seconds
#
# Revision: 0
# Processed by: cddbd v1.5.2PL0 Copyright (c) Steve Scherf et al.
# Submitted via: dBpowerAMP V4.0
#
DISCID=780d010a
DTITLE=Howling Diablos - Howling Diablos Live
DYEAR=1998
DGENRE=Blues
TTITLE0=Funky Daddy
TTITLE1=Reefer Man
TTITLE2=Nobody in Detroit
TTITLE3=Junkyard Jesus
TTITLE4=Go Gene Go
TTITLE5=Business Man's Legs
TTITLE6=Record Collection
TTITLE7=Ban Lon Stew
TTITLE8=X-Mas In Jail
TTITLE9=Babysitter
EXTD=Rockin' Blues Band from Detroit, MI
EXTT0=
EXTT1=
EXTT2=
EXTT3=
EXTT4=
EXTT5=
EXTT6=
EXTT7=
EXTT8=
EXTT9=
PLAYORDER=
